HIERARCHY
ROOT Hips
{
	OFFSET -0.150001 87.211151 2.220142
	CHANNELS 6 Xposition Yposition Zposition Xrotation Yrotation Zrotation
	JOINT Pelvis
	{
		OFFSET 0.000000 0.000000 0.000000
		CHANNELS 3 Xrotation Yrotation Zrotation
		JOINT LeftUpLeg
		{
			OFFSET 12.016979 -9.376381 -2.439418
			CHANNELS 3 Xrotation Yrotation Zrotation
			JOINT LeftLeg
			{
				OFFSET -0.817380 -32.836784 2.110571
				CHANNELS 3 Xrotation Yrotation Zrotation
				JOINT LeftFoot
				{
					OFFSET -0.783454 -32.055588 -0.570427
					CHANNELS 3 Xrotation Yrotation Zrotation
					JOINT LeftToeBase
					{
						OFFSET 0.728348 -11.045863 13.180651
						CHANNELS 3 Xrotation Yrotation Zrotation
						End Site
						{
							OFFSET 0.000000 17.212528 0.000000
						}
					}
				}
				JOINT LeftPantLeg
				{
					OFFSET -0.409309 -16.703976 -3.143619
					CHANNELS 3 Xrotation Yrotation Zrotation
					End Site
					{
						OFFSET 0.000000 24.536182 0.000000
					}
				}
			}
			JOINT Left_Butt
			{
				OFFSET -6.595482 1.489731 -3.183693
				CHANNELS 3 Xrotation Yrotation Zrotation
				End Site
				{
					OFFSET 0.000000 20.194176 0.000000
				}
			}
		}
		JOINT RightUpLeg
		{
			OFFSET -11.716976 -9.376381 -2.439418
			CHANNELS 3 Xrotation Yrotation Zrotation
			JOINT RightLeg
			{
				OFFSET 0.806788 -32.837044 2.110606
				CHANNELS 3 Xrotation Yrotation Zrotation
				JOINT RightFoot
				{
					OFFSET 0.794045 -32.055328 -0.570462
					CHANNELS 3 Xrotation Yrotation Zrotation
					JOINT RightToeBase
					{
						OFFSET -0.728348 -11.045862 13.180651
						CHANNELS 3 Xrotation Yrotation Zrotation
						End Site
						{
							OFFSET 0.000000 17.212528 0.000000
						}
					}
				}
				JOINT RightPantLeg
				{
					OFFSET 0.420190 -16.703716 -3.143653
					CHANNELS 3 Xrotation Yrotation Zrotation
					End Site
					{
						OFFSET 0.000000 24.536198 0.000000
					}
				}
			}
			JOINT Right_Butt
			{
				OFFSET 6.595978 1.489731 -3.183693
				CHANNELS 3 Xrotation Yrotation Zrotation
				End Site
				{
					OFFSET 0.000000 20.194397 0.000000
				}
			}
		}
	}
	JOINT Spine
	{
		OFFSET -0.062379 7.848404 3.918342
		CHANNELS 3 Xrotation Yrotation Zrotation
		JOINT Spine1
		{
			OFFSET -0.072775 11.422256 0.713384
			CHANNELS 3 Xrotation Yrotation Zrotation
			JOINT Spine2
			{
				OFFSET -0.083171 13.054008 -1.931563
				CHANNELS 3 Xrotation Yrotation Zrotation
				JOINT Neck
				{
					OFFSET -0.092225 14.121773 -5.138807
					CHANNELS 3 Xrotation Yrotation Zrotation
					JOINT Head
					{
						OFFSET 0.000171 10.447388 -0.842032
						CHANNELS 3 Xrotation Yrotation Zrotation
						JOINT Visor
						{
							OFFSET 0.457139 25.671173 16.550411
							CHANNELS 3 Xrotation Yrotation Zrotation
							End Site
							{
								OFFSET 0.000000 26.061493 0.000000
							}
						}
						JOINT HairMidA
						{
							OFFSET 0.459357 31.585358 8.437352
							CHANNELS 3 Xrotation Yrotation Zrotation
							End Site
							{
								OFFSET 0.000000 26.061493 0.000000
							}
						}
						JOINT HairMidB
						{
							OFFSET 0.464023 33.309235 -8.389654
							CHANNELS 3 Xrotation Yrotation Zrotation
							End Site
							{
								OFFSET 0.000000 26.061493 0.000000
							}
						}
						JOINT HairMidC
						{
							OFFSET 0.466553 27.991165 -17.375053
							CHANNELS 3 Xrotation Yrotation Zrotation
							End Site
							{
								OFFSET 0.000000 26.061493 0.000000
							}
						}
						JOINT HairMidD
						{
							OFFSET 0.467668 17.888062 -21.169472
							CHANNELS 3 Xrotation Yrotation Zrotation
							End Site
							{
								OFFSET 0.000000 26.061493 0.000000
							}
						}
						JOINT HairMidE
						{
							OFFSET 5.325659 3.514648 -14.369741
							CHANNELS 3 Xrotation Yrotation Zrotation
							End Site
							{
								OFFSET 0.000000 26.061493 0.000000
							}
						}
						JOINT HairMidF
						{
							OFFSET -4.394134 3.514587 -14.372442
							CHANNELS 3 Xrotation Yrotation Zrotation
							End Site
							{
								OFFSET 0.000000 26.061493 0.000000
							}
						}
						JOINT HairLeftA
						{
							OFFSET 15.319869 25.746521 2.623347
							CHANNELS 3 Xrotation Yrotation Zrotation
							End Site
							{
								OFFSET 0.000000 26.061493 0.000000
							}
						}
						JOINT HairLeftB
						{
							OFFSET 12.619466 29.289368 -8.731475
							CHANNELS 3 Xrotation Yrotation Zrotation
							End Site
							{
								OFFSET 0.000000 26.061493 0.000000
							}
						}
						JOINT HairLeftC
						{
							OFFSET 15.714844 15.959915 2.909834
							CHANNELS 3 Xrotation Yrotation Zrotation
							End Site
							{
								OFFSET 0.000000 26.061493 0.000000
							}
						}
						JOINT HairLeftD
						{
							OFFSET 16.101723 18.437363 -7.553188
							CHANNELS 3 Xrotation Yrotation Zrotation
							End Site
							{
								OFFSET 0.000000 26.061493 0.000000
							}
						}
						JOINT HairLeftE
						{
							OFFSET 9.731930 17.914993 -18.316845
							CHANNELS 3 Xrotation Yrotation Zrotation
							End Site
							{
								OFFSET 0.000000 26.061493 0.000000
							}
						}
						JOINT HairLeftF
						{
							OFFSET 11.204299 4.953644 -9.668147
							CHANNELS 3 Xrotation Yrotation Zrotation
							End Site
							{
								OFFSET 0.000000 26.061493 0.000000
							}
						}
						JOINT HairRightA
						{
							OFFSET -14.397850 25.746338 2.615088
							CHANNELS 3 Xrotation Yrotation Zrotation
							End Site
							{
								OFFSET 0.000000 26.061493 0.000000
							}
						}
						JOINT HairRightB
						{
							OFFSET -11.691177 29.289230 -8.738231
							CHANNELS 3 Xrotation Yrotation Zrotation
							End Site
							{
								OFFSET 0.000000 26.061493 0.000000
							}
						}
						JOINT HairRightC
						{
							OFFSET -14.792866 15.959732 2.901356
							CHANNELS 3 Xrotation Yrotation Zrotation
							End Site
							{
								OFFSET 0.000000 26.061493 0.000000
							}
						}
						JOINT HairRightD
						{
							OFFSET -15.173956 18.437164 -7.561880
							CHANNELS 3 Xrotation Yrotation Zrotation
							End Site
							{
								OFFSET 0.000000 26.061493 0.000000
							}
						}
						JOINT HairRightE
						{
							OFFSET -8.798178 17.914886 -18.321995
							CHANNELS 3 Xrotation Yrotation Zrotation
							End Site
							{
								OFFSET 0.000000 26.061493 0.000000
							}
						}
						JOINT HairRightF
						{
							OFFSET -10.275196 4.953506 -9.674116
							CHANNELS 3 Xrotation Yrotation Zrotation
							End Site
							{
								OFFSET 0.000000 26.061493 0.000000
							}
						}
					}
				}
				JOINT LeftShoulder
				{
					OFFSET 5.133502 7.341248 -1.867558
					CHANNELS 3 Xrotation Yrotation Zrotation
					JOINT LeftArm
					{
						OFFSET 8.073057 0.933060 -2.176591
						CHANNELS 3 Xrotation Yrotation Zrotation
						JOINT LeftForeArm
						{
							OFFSET 31.170431 -0.110054 -2.516341
							CHANNELS 3 Xrotation Yrotation Zrotation
							JOINT LeftHand
							{
								OFFSET 31.758984 -0.038307 -0.873058
								CHANNELS 3 Xrotation Yrotation Zrotation
								JOINT LeftHandThumb1
								{
									OFFSET 3.014229 -1.208282 4.882164
									CHANNELS 3 Xrotation Yrotation Zrotation
									JOINT LeftHandThumb2
									{
										OFFSET 2.436516 -1.204407 1.408011
										CHANNELS 3 Xrotation Yrotation Zrotation
										JOINT LeftHandThumb3
										{
											OFFSET 2.254616 -1.535309 0.973410
											CHANNELS 3 Xrotation Yrotation Zrotation
											End Site
											{
												OFFSET 0.000000 2.896202 0.000000
											}
										}
									}
								}
								JOINT LeftHandIndex1
								{
									OFFSET 8.516617 0.916695 3.193901
									CHANNELS 3 Xrotation Yrotation Zrotation
									JOINT LeftHandIndex2
									{
										OFFSET 3.305534 -0.513794 0.148831
										CHANNELS 3 Xrotation Yrotation Zrotation
										JOINT LeftHandIndex3
										{
											OFFSET 3.149483 -1.032883 -0.004956
											CHANNELS 3 Xrotation Yrotation Zrotation
											End Site
											{
												OFFSET 0.000000 3.314529 0.000000
											}
										}
									}
								}
								JOINT LeftHandMiddle1
								{
									OFFSET 8.085388 0.797127 0.009041
									CHANNELS 3 Xrotation Yrotation Zrotation
									JOINT LeftHandMiddle2
									{
										OFFSET 4.055710 -0.878586 -0.370356
										CHANNELS 3 Xrotation Yrotation Zrotation
										JOINT LeftHandMiddle3
										{
											OFFSET 2.822098 -1.032654 -0.279992
											CHANNELS 3 Xrotation Yrotation Zrotation
											End Site
											{
												OFFSET 0.000000 3.018112 0.000000
											}
										}
									}
								}
								JOINT LeftHandRing1
								{
									OFFSET 8.600105 0.164856 -2.793547
									CHANNELS 3 Xrotation Yrotation Zrotation
									JOINT LeftHandRing2
									{
										OFFSET 3.528015 -0.934578 -0.396605
										CHANNELS 3 Xrotation Yrotation Zrotation
										JOINT LeftHandRing3
										{
											OFFSET 2.593292 -0.815781 -0.236382
											CHANNELS 3 Xrotation Yrotation Zrotation
											End Site
											{
												OFFSET 0.000000 2.728836 0.000000
											}
										}
									}
								}
								JOINT LeftHandPinky1
								{
									OFFSET 8.001732 -1.051186 -4.918592
									CHANNELS 3 Xrotation Yrotation Zrotation
									JOINT LeftHandPinky2
									{
										OFFSET 2.860458 -0.755989 -0.813781
										CHANNELS 3 Xrotation Yrotation Zrotation
										JOINT LeftHandPinky3
										{
											OFFSET 2.324455 -0.524551 -0.249960
											CHANNELS 3 Xrotation Yrotation Zrotation
											End Site
											{
												OFFSET 0.000000 2.395981 0.000000
											}
										}
									}
								}
							}
							JOINT LeftSleeve
							{
								OFFSET 19.689919 -0.223915 -0.065017
								CHANNELS 3 Xrotation Yrotation Zrotation
								End Site
								{
									OFFSET 0.000000 25.731148 0.000000
								}
							}
						}
					}
				}
				JOINT RightShoulder
				{
					OFFSET -4.395899 7.341194 -1.870206
					CHANNELS 3 Xrotation Yrotation Zrotation
					JOINT RightArm
					{
						OFFSET -8.071857 0.932961 -2.181078
						CHANNELS 3 Xrotation Yrotation Zrotation
						JOINT RightForeArm
						{
							OFFSET -31.169025 -0.110435 -2.533666
							CHANNELS 3 Xrotation Yrotation Zrotation
							JOINT RightHand
							{
								OFFSET -31.758495 -0.038696 -0.890710
								CHANNELS 3 Xrotation Yrotation Zrotation
								JOINT RightHandThumb1
								{
									OFFSET -3.016930 -1.208313 4.880487
									CHANNELS 3 Xrotation Yrotation Zrotation
									JOINT RightHandThumb2
									{
										OFFSET -2.437279 -1.204437 1.406657
										CHANNELS 3 Xrotation Yrotation Zrotation
										JOINT RightHandThumb3
										{
											OFFSET -2.255142 -1.535332 0.972157
											CHANNELS 3 Xrotation Yrotation Zrotation
											End Site
											{
												OFFSET 0.000000 2.896202 0.000000
											}
										}
									}
								}
								JOINT RightHandIndex1
								{
									OFFSET -8.518402 0.916595 3.189166
									CHANNELS 3 Xrotation Yrotation Zrotation
									JOINT RightHandIndex2
									{
										OFFSET -3.305611 -0.513840 0.146994
										CHANNELS 3 Xrotation Yrotation Zrotation
										JOINT RightHandIndex3
										{
											OFFSET -3.149467 -1.032913 -0.006706
											CHANNELS 3 Xrotation Yrotation Zrotation
											End Site
											{
												OFFSET 0.000000 3.314529 0.000000
											}
										}
									}
								}
								JOINT RightHandMiddle1
								{
									OFFSET -8.085396 0.797043 0.004547
									CHANNELS 3 Xrotation Yrotation Zrotation
									JOINT RightHandMiddle2
									{
										OFFSET -4.055504 -0.878647 -0.372611
										CHANNELS 3 Xrotation Yrotation Zrotation
										JOINT RightHandMiddle3
										{
											OFFSET -2.821922 -1.032684 -0.281561
											CHANNELS 3 Xrotation Yrotation Zrotation
											End Site
											{
												OFFSET 0.000000 3.018112 0.000000
											}
										}
									}
								}
								JOINT RightHandRing1
								{
									OFFSET -8.598557 0.164757 -2.798328
									CHANNELS 3 Xrotation Yrotation Zrotation
									JOINT RightHandRing2
									{
										OFFSET -3.527779 -0.934624 -0.398566
										CHANNELS 3 Xrotation Yrotation Zrotation
										JOINT RightHandRing3
										{
											OFFSET -2.593147 -0.815811 -0.237823
											CHANNELS 3 Xrotation Yrotation Zrotation
											End Site
											{
												OFFSET 0.000000 2.728836 0.000000
											}
										}
									}
								}
								JOINT RightHandPinky1
								{
									OFFSET -7.998985 -1.051277 -4.923038
									CHANNELS 3 Xrotation Yrotation Zrotation
									JOINT RightHandPinky2
									{
										OFFSET -2.859993 -0.756027 -0.815371
										CHANNELS 3 Xrotation Yrotation Zrotation
										JOINT RightHandPinky3
										{
											OFFSET -2.324310 -0.524582 -0.251251
											CHANNELS 3 Xrotation Yrotation Zrotation
											End Site
											{
												OFFSET 0.000000 2.395981 0.000000
											}
										}
									}
								}
							}
							JOINT RightSleeve
							{
								OFFSET -19.690090 -0.224159 -0.075961
								CHANNELS 3 Xrotation Yrotation Zrotation
								End Site
								{
									OFFSET 0.000000 25.731255 0.000000
								}
							}
						}
					}
				}
				JOINT Hood
				{
					OFFSET 0.369716 14.447853 -5.317849
					CHANNELS 3 Xrotation Yrotation Zrotation
					JOINT Hood1
					{
						OFFSET 0.001672 -5.553833 -5.895097
						CHANNELS 3 Xrotation Yrotation Zrotation
						JOINT Hood2
						{
							OFFSET -0.000161 -8.380455 0.763632
							CHANNELS 3 Xrotation Yrotation Zrotation
							End Site
							{
								OFFSET 0.000000 8.415169 0.000000
							}
						}
					}
				}
				JOINT Left_Breast
				{
					OFFSET 5.682508 3.120148 3.188847
					CHANNELS 3 Xrotation Yrotation Zrotation
					End Site
					{
						OFFSET 0.000000 10.528572 0.000000
					}
				}
				JOINT Right_Breast
				{
					OFFSET -4.947578 3.120087 3.185892
					CHANNELS 3 Xrotation Yrotation Zrotation
					End Site
					{
						OFFSET 0.000000 10.528572 0.000000
					}
				}
				JOINT Whistle
				{
					OFFSET 0.368230 11.471275 0.095403
					CHANNELS 3 Xrotation Yrotation Zrotation
					JOINT Whistle1
					{
						OFFSET -0.002040 -6.349861 7.479819
						CHANNELS 3 Xrotation Yrotation Zrotation
						JOINT Whistle2
						{
							OFFSET -0.001261 -8.217644 4.717561
							CHANNELS 3 Xrotation Yrotation Zrotation
							End Site
							{
								OFFSET 0.000000 9.475494 0.000000
							}
						}
					}
				}
			}
		}
		JOINT Belly
		{
			OFFSET 0.212380 1.592987 3.163679
			CHANNELS 3 Xrotation Yrotation Zrotation
			End Site
			{
				OFFSET 0.000000 7.496605 0.000000
			}
		}
	}
	JOINT FitGrandmaFacialAnim_Joint
	{
		OFFSET 1.280120 -86.211151 -1.082839
		CHANNELS 3 Xrotation Yrotation Zrotation
		End Site
		{
			OFFSET 0.000000 31.666611 0.000000
		}
	}
}
MOTION
Frames: 4
Frame Time: 0.016667
-0.474107 90.894249 3.587071 88.927349 7.459362 4.653645 -0.000000 -6.467573 -0.000001 -10.538763 2.359039 10.362194 21.722674 -1.609973 -0.732664 13.504535 -0.067000 -17.843082 -0.000001 0.000001 0.000000 0.000000 0.000000 0.000000 0.000000 0.000001 0.000001 -19.252311 -56.693937 -24.976209 12.757816 0.516680 0.354041 8.216828 40.445477 22.789184 0.000000 0.000001 -0.000001 0.000001 0.000002 0.000000 -0.000000 0.000003 0.000000 -1.166125 -5.806050 -1.094931 -2.316034 1.317258 -1.535885 -2.316039 1.317258 -1.535886 -9.789819 1.583974 -0.348993 2.502141 5.858926 -13.077557 -0.000000 0.000002 -0.000001 -0.000000 0.000002 -0.000001 -0.000000 0.000002 -0.000001 -0.000000 0.000002 -0.000001 -0.000000 0.000002 -0.000001 -0.000000 0.000002 -0.000001 -0.000000 0.000002 -0.000001 -0.000000 0.000002 -0.000001 -0.000000 0.000002 -0.000001 -0.000000 0.000002 -0.000001 -0.000000 0.000002 -0.000001 -0.000000 0.000002 -0.000001 -0.000000 0.000002 -0.000001 -0.000000 0.000002 -0.000001 -0.000000 0.000002 -0.000001 -0.000000 0.000002 -0.000001 -0.000000 0.000002 -0.000001 -0.000000 0.000002 -0.000001 -0.000000 0.000002 -0.000001 0.301150 -2.573216 -7.732850 3.429148 14.725939 -22.809316 -12.314550 -132.501039 -1.883136 55.330966 17.655605 37.641548 -45.927893 -11.967163 -29.314052 -3.305375 -1.872902 12.748293 0.000002 0.000001 -0.000000 -1.304573 -4.558365 -41.600841 -12.242720 -5.659750 -33.809389 -0.000001 0.000000 0.000000 -9.459280 -9.563713 -41.293555 -11.894764 -4.605731 -31.169698 0.000001 -0.000000 0.000000 -9.120291 -4.654878 -32.654011 -13.908490 -6.020824 -58.591801 -0.000002 0.000001 -0.000001 -17.816928 -16.450147 -49.149167 -6.380591 -3.834280 -36.874190 -0.000000 0.000001 0.000001 -0.000001 -0.000000 -0.000000 0.363580 1.823640 6.207041 -12.082453 -27.475901 16.970250 0.159974 136.655611 -0.395477 57.222420 -16.604402 -25.301828 -19.723937 6.430567 -24.411738 -1.070003 -6.770562 -6.826702 -0.000000 0.000000 -0.000000 -10.072687 3.033166 11.741554 -13.980206 9.509319 40.528546 0.000001 -0.000001 0.000001 -3.796120 5.996955 -2.574799 -17.791145 4.454117 50.722645 -0.000000 0.000001 -0.000001 -3.354389 0.697723 -8.072436 -21.399459 12.272993 73.752342 0.000000 -0.000001 0.000000 0.294062 14.836011 3.315394 -13.707279 8.335349 52.580295 -0.000005 0.000000 -0.000000 -0.000000 0.000001 0.000000 0.000000 -0.000000 -0.000000 0.000000 -0.000000 -0.000000 0.000000 -0.000000 -0.000000 0.000000 -0.000000 -0.000000 0.000000 -0.000000 -0.000000 0.000000 -0.000000 -0.000000 0.000000 -0.000000 -0.000000 0.000000 -0.000000 -0.000000 0.000000 0.000000 -0.000000 -0.000000 -0.000000 -0.000001 
-0.472082 90.904457 3.576914 88.918012 7.452043 4.659050 -0.000000 -6.467572 0.000000 -10.498965 2.397786 10.372442 21.608678 -1.632613 -0.731303 13.568566 -0.116944 -18.080547 -0.000001 -0.000000 0.000000 0.000001 -0.000000 0.000000 0.000000 -0.000000 -0.000001 -19.172727 -56.523743 -24.888589 12.771819 0.528305 0.354352 8.077367 40.313013 22.942226 0.000001 -0.000002 0.000002 0.000000 0.000000 -0.000000 0.000001 0.000000 0.000000 -1.163163 -5.798266 -1.086226 -2.310158 1.333089 -1.525447 -2.310151 1.333087 -1.525446 -9.900962 1.586346 -0.318188 2.520806 5.884357 -13.149390 -0.000000 0.000001 -0.000001 -0.000000 0.000001 -0.000001 -0.000000 0.000001 -0.000001 -0.000000 0.000001 -0.000001 -0.000000 0.000001 -0.000001 -0.000000 0.000001 -0.000001 -0.000000 0.000001 -0.000001 -0.000000 0.000001 -0.000001 -0.000000 0.000001 -0.000001 -0.000000 0.000001 -0.000001 -0.000000 0.000001 -0.000001 -0.000000 0.000001 -0.000001 -0.000000 0.000001 -0.000001 -0.000000 0.000001 -0.000001 -0.000000 0.000001 -0.000001 -0.000000 0.000001 -0.000001 -0.000000 0.000001 -0.000001 -0.000000 0.000001 -0.000001 -0.000000 0.000001 -0.000001 0.299679 -2.565763 -7.746246 3.393788 14.652368 -22.828275 -12.301574 -132.424281 -1.879752 55.327220 17.627093 37.651800 -45.961982 -12.007152 -29.350651 -3.294268 -1.843954 12.738912 -0.000003 0.000001 0.000001 -1.287919 -4.529301 -41.526348 -12.215528 -5.649941 -33.680749 -0.000001 -0.000000 0.000000 -9.436521 -9.550282 -41.276636 -11.867384 -4.598262 -31.080356 -0.000001 0.000000 -0.000000 -9.187091 -4.636985 -32.526460 -13.895614 -6.017555 -58.537515 -0.000001 0.000001 0.000001 -17.891196 -16.468196 -49.192057 -6.368878 -3.824760 -36.828670 -0.000000 0.000001 0.000002 0.000001 0.000001 -0.000001 0.364485 1.899047 6.225594 -12.252433 -27.607384 17.110290 0.159023 136.762872 -0.394574 57.359041 -16.517518 -25.151352 -19.815830 6.667920 -24.325278 -1.087389 -6.731939 -6.836417 -0.000000 0.000001 -0.000000 -10.292526 3.648144 13.043923 -14.099694 9.618712 41.524203 0.000002 -0.000000 -0.000001 -4.317891 6.869109 0.095162 -18.523244 4.480690 52.923468 -0.000001 0.000001 -0.000001 -3.689178 1.151291 -6.213855 -21.411108 12.271446 73.786001 0.000001 -0.000000 -0.000000 0.218945 14.732803 3.778890 -13.438334 8.266459 51.937790 -0.000002 0.000001 -0.000001 -0.000001 0.000000 0.000000 0.000000 -0.000000 0.000000 0.000000 -0.000000 0.000000 0.000000 -0.000000 0.000000 0.000000 -0.000000 0.000000 0.000000 -0.000000 0.000000 0.000000 -0.000000 0.000000 0.000000 -0.000000 0.000000 0.000000 -0.000000 0.000000 0.000000 0.000000 -0.000000 0.000000 -0.000000 0.000000 
-0.471905 90.918007 3.568471 88.902774 7.453635 4.667993 -0.000000 -6.467573 -0.000000 -10.463828 2.419775 10.377439 21.507607 -1.653163 -0.730094 13.623196 -0.168717 -18.289122 0.000001 -0.000001 0.000000 0.000001 -0.000000 0.000000 0.000001 -0.000000 0.000000 -19.079869 -56.340765 -24.794700 12.780583 0.539882 0.354508 7.932850 40.159190 23.101412 0.000001 -0.000000 -0.000001 0.000000 0.000001 -0.000000 -0.000000 -0.000001 -0.000000 -1.159014 -5.792600 -1.078717 -2.301898 1.344655 -1.517199 -2.301862 1.344653 -1.517198 -10.017184 1.590679 -0.290128 2.538479 5.913938 -13.218378 0.000001 -0.000001 0.000000 0.000001 -0.000001 0.000000 0.000001 -0.000001 0.000000 0.000001 -0.000001 0.000000 0.000001 -0.000001 0.000000 0.000001 -0.000001 0.000000 0.000001 -0.000001 0.000000 0.000001 -0.000001 0.000000 0.000001 -0.000001 0.000000 0.000001 -0.000001 0.000000 0.000001 -0.000001 0.000000 0.000001 -0.000001 0.000000 0.000001 -0.000001 0.000000 0.000001 -0.000001 0.000000 0.000001 -0.000001 0.000000 0.000001 -0.000001 0.000000 0.000001 -0.000001 0.000000 0.000001 -0.000001 0.000000 0.000001 -0.000001 0.000000 0.300354 -2.517161 -7.743525 3.342285 14.499153 -22.938231 -12.334157 -132.317785 -1.893740 55.368160 17.508165 37.637392 -45.986168 -12.032887 -29.378498 -3.284369 -1.818163 12.730558 -0.000003 -0.000003 -0.000003 -1.274146 -4.504322 -41.461171 -12.190539 -5.640804 -33.562187 0.000002 -0.000000 0.000000 -9.406325 -9.533482 -41.251143 -11.839925 -4.590708 -30.990703 -0.000000 -0.000000 0.000000 -9.264586 -4.619609 -32.394184 -13.882754 -6.014234 -58.483235 -0.000003 0.000000 -0.000001 -17.963389 -16.483133 -49.255124 -6.357798 -3.815769 -36.785763 0.000001 0.000000 0.000002 0.000001 0.000001 -0.000002 0.364657 1.983891 6.254780 -12.456584 -27.751007 17.281651 0.158127 136.868426 -0.393611 57.518929 -16.395840 -24.986833 -19.914094 6.917928 -24.231614 -1.107700 -6.686843 -6.847857 0.000000 0.000001 -0.000000 -10.542349 4.313330 14.440758 -14.219826 9.732158 42.556593 -0.000003 0.000001 -0.000001 -4.911255 7.775810 2.931190 -19.305596 4.478310 55.273965 0.000001 0.000000 -0.000001 -4.063238 1.624593 -4.254522 -21.421720 12.270062 73.816607 0.000001 -0.000000 -0.000000 0.150554 14.626613 4.227328 -13.157233 8.191676 51.267926 -0.000001 0.000000 -0.000001 -0.000000 0.000001 0.000000 -0.000000 -0.000001 -0.000000 -0.000000 -0.000001 -0.000000 -0.000000 -0.000001 -0.000000 -0.000000 -0.000001 -0.000000 -0.000000 -0.000001 -0.000000 -0.000000 -0.000001 -0.000000 -0.000000 -0.000001 -0.000000 -0.000000 -0.000001 -0.000000 -0.000000 -0.000000 -0.000001 0.000000 0.000000 -0.000000 
-0.476536 90.940727 3.564666 88.871006 7.475958 4.685343 0.000000 -6.467573 0.000000 -10.440694 2.404487 10.369537 21.441128 -1.668693 -0.729325 13.659664 -0.213765 -18.420351 -0.000001 -0.000000 -0.000000 0.000001 -0.000001 -0.000001 0.000000 -0.000000 0.000001 -18.951832 -56.128104 -24.684129 12.776386 0.551497 0.354327 7.775126 39.959318 23.275685 -0.000001 0.000000 0.000002 -0.000000 -0.000003 0.000001 -0.000001 0.000001 0.000000 -1.150360 -5.791010 -1.073914 -2.284591 1.347991 -1.513991 -2.284570 1.347989 -1.513990 -10.150558 1.599590 -0.263856 2.547892 5.959470 -13.282925 0.000001 0.000001 0.000000 0.000001 0.000001 0.000000 0.000001 0.000001 0.000000 0.000001 0.000001 0.000000 0.000001 0.000001 0.000000 0.000001 0.000001 0.000000 0.000001 0.000001 0.000000 0.000001 0.000001 0.000000 0.000001 0.000001 0.000000 0.000001 0.000001 0.000000 0.000001 0.000001 0.000000 0.000001 0.000001 0.000000 0.000001 0.000001 0.000000 0.000001 0.000001 0.000000 0.000001 0.000001 0.000000 0.000001 0.000001 0.000000 0.000001 0.000001 0.000000 0.000001 0.000001 0.000000 0.000001 0.000001 0.000000 0.300469 -2.491776 -7.747408 3.285941 14.362320 -23.007952 -12.339976 -132.194486 -1.895204 55.392923 17.429366 37.669241 -45.987537 -12.033972 -29.379659 -3.275254 -1.794365 12.722813 0.000001 0.000003 0.000000 -1.268970 -4.493120 -41.432669 -12.170581 -5.633292 -33.466370 0.000000 -0.000000 -0.000000 -9.355625 -9.508295 -41.215301 -11.810450 -4.582560 -30.894462 0.000000 0.000000 0.000000 -9.367631 -4.604052 -32.256777 -13.868959 -6.010701 -58.424967 -0.000001 -0.000001 -0.000001 -18.034250 -16.490896 -49.375202 -6.349903 -3.809387 -36.755229 -0.000001 0.000000 0.000001 -0.000001 -0.000002 -0.000001 0.363549 2.096200 6.309310 -12.743433 -27.940501 17.524099 0.157060 136.979990 -0.392402 57.737078 -16.199399 -24.803822 -20.034728 7.217875 -24.115361 -1.139636 -6.616022 -6.866112 -0.000001 -0.000000 -0.000002 -10.857299 5.065702 15.973050 -14.303278 9.846302 43.490437 -0.000002 0.000000 -0.000000 -5.609358 8.734860 5.931525 -20.128190 4.441757 57.746941 -0.000001 0.000001 -0.000001 -4.498816 2.125558 -2.219759 -21.422612 12.269941 73.819209 0.000000 0.000000 0.000000 0.084366 14.541905 4.649554 -12.855168 8.106282 50.542539 -0.000002 0.000000 -0.000001 0.000001 -0.000000 -0.000001 -0.000000 -0.000000 0.000000 -0.000000 -0.000000 0.000000 -0.000000 -0.000000 0.000000 -0.000000 -0.000000 0.000000 -0.000000 -0.000000 0.000000 -0.000000 -0.000000 0.000000 -0.000000 -0.000000 0.000000 -0.000000 -0.000000 0.000000 0.000000 0.000000 -0.000000 0.000000 0.000001 0.000000 
